# xmcd
#
# Track frame offsets:
#	150
#	12057
#	24312
#	37094
#	46652
#	60247
#	71484
#	82529
#	94118
#	104591
#	116572
#	125896
#
# Disc length: 1813 seconds
#
# Revision: 1
# Processed by: cddbd v1.5.2PL0 Copyright (c) Steve Scherf et al.
# Submitted via: audiograbber 1.83.01
#
DISCID=8d07130c
DTITLE=Roy Acuff - Greatest Hits
DYEAR=2007
DGENRE=Country
TTITLE0=The Wabash Cannonball
TTITLE1=The Great Speckled Bird
TTITLE2=Rolling In My Sweet Baby's Arms
TTITLE3=Uncle Pen
TTITLE4=Red River Valley
TTITLE5=Night Train To Memphis
TTITLE6=Unloved And Unclaimed
TTITLE7=Once More
TTITLE8=So Many Times
TTITLE9=Come And Knock On The Door Of My Heart
TTITLE10=Freight Train Blues
TTITLE11=Back In The Country
EXTD=
EXTT0=
EXTT1=
EXTT2=
EXTT3=
EXTT4=
EXTT5=
EXTT6=
EXTT7=
EXTT8=
EXTT9=
EXTT10=
EXTT11=
PLAYORDER=
